<svg xmlns="http://www.w3.org/2000/svg" width="70.015" height="67" viewBox="0 0 70.015 67">
  <g id="Groupe_61214" data-name="Groupe 61214" transform="translate(-2427.817 -1915.734)">
    <g id="Groupe_59043" data-name="Groupe 59043" transform="translate(2428.576 1918.488)">
      <path id="Tracé_57812" data-name="Tracé 57812" d="M204.273,208.764h0l-29.1-4.372a.034.034,0,0,1-.023-.015.035.035,0,0,1,0-.028l8.147-34.892a.035.035,0,0,1,.028-.026.036.036,0,0,1,.034.017l10.484,17.84L204.3,208.715a.034.034,0,0,1,0,.035A.033.033,0,0,1,204.273,208.764Zm-29.057-4.435,29,4.357-10.439-21.367-10.439-17.763Z" transform="translate(-175.141 -169.431)" fill="#010101"/>
    </g>
    <g id="Groupe_59044" data-name="Groupe 59044" transform="translate(2436.723 1916.495)">
      <path id="Tracé_57813" data-name="Tracé 57813" d="M206.96,191.038a.03.03,0,0,1-.015,0l-9.467-4.6a.035.035,0,0,1-.014-.014l-10.484-17.84a.037.037,0,0,1,0-.034.034.034,0,0,1,.029-.018l40.051-1.993a.04.04,0,0,1,.033.019.035.035,0,0,1,0,.037l-20.1,24.433A.033.033,0,0,1,206.96,191.038Zm-9.442-4.662,9.433,4.585,20.034-24.352-39.917,1.985Z" transform="translate(-186.974 -166.536)" fill="#010101"/>
    </g>
    <g id="Groupe_59045" data-name="Groupe 59045" transform="translate(2466.264 1931.927)">
      <path id="Tracé_57814" data-name="Tracé 57814" d="M248.909,234.9h-.01l-18.989-6.329a.034.034,0,0,1-.023-.04l7.906-39.545a.031.031,0,0,1,.041-.027l22.833,4.4a.034.034,0,0,1,.023.015.035.035,0,0,1,0,.028L248.942,234.87a.035.035,0,0,1-.017.021A.036.036,0,0,1,248.909,234.9Zm-18.949-6.386,18.926,6.307,11.731-41.4-22.763-4.387Z" transform="translate(-229.886 -188.953)" fill="#010101"/>
    </g>
    <g id="Groupe_59046" data-name="Groupe 59046" transform="translate(2440.595 1957.095)">
      <path id="Tracé_57815" data-name="Tracé 57815" d="M192.633,250.39a.034.034,0,0,1-.023-.059l28.151-24.811a.036.036,0,0,1,.039,0,.033.033,0,0,1,.017.036L218.341,239.9l18.961,6.32a.035.035,0,0,1-.008.067l-44.658,4.1Zm28.1-24.754-28,24.676,44.39-4.08-18.833-6.276a.034.034,0,0,1-.023-.039Z" transform="translate(-192.598 -225.511)" fill="#010101"/>
    </g>
    <g id="Groupe_59047" data-name="Groupe 59047" transform="translate(2456.674 1931.928)">
      <path id="Tracé_57816" data-name="Tracé 57816" d="M216.99,214.847a.031.031,0,0,1-.023-.008.035.035,0,0,1-.012-.023l-1-16.825a.035.035,0,0,1,.019-.033l17.5-9a.037.037,0,0,1,.036,0,.034.034,0,0,1,.013.035L228.1,214.161a.034.034,0,0,1-.032.027l-11.071.659Zm-.965-16.839,1,16.768,11.01-.655,5.4-25.07Z" transform="translate(-215.955 -188.953)" fill="#010101"/>
    </g>
    <g id="Groupe_59051" data-name="Groupe 59051" transform="translate(2447.207 1916.494)">
      <g id="Groupe_59048" data-name="Groupe 59048" transform="translate(19.057 15.433)">
        <path id="Tracé_57817" data-name="Tracé 57817" d="M229.92,228.566h0a.034.034,0,0,1-.03-.037l1.959-23.171,0-.008,5.947-16.374a.033.033,0,0,1,.042-.021.034.034,0,0,1,.024.04l-7.906,39.545A.035.035,0,0,1,229.92,228.566Zm1.993-23.2-1.907,22.56,7.7-38.5Z" transform="translate(-229.886 -188.952)" fill="#010101"/>
      </g>
      <g id="Groupe_59049" data-name="Groupe 59049" transform="translate(0 19.833)">
        <path id="Tracé_57818" data-name="Tracé 57818" d="M212.179,208.005a.035.035,0,0,1-.027-.012L202.211,195.4a.034.034,0,0,1,0-.043.032.032,0,0,1,.042-.009l9.467,4.6a.035.035,0,0,1,.019.029l.475,7.992a.033.033,0,0,1-.022.034Zm-9.822-12.53,9.781,12.388L211.671,200Z" transform="translate(-202.203 -195.344)" fill="#010101"/>
      </g>
      <g id="Groupe_59050" data-name="Groupe 59050" transform="translate(9.467 0)">
        <path id="Tracé_57819" data-name="Tracé 57819" d="M215.989,191.038a.033.033,0,0,1-.027-.013.034.034,0,0,1,0-.043l20.1-24.433c.007-.008.015-.017.027-.012a.036.036,0,0,1,.024.01l20.229,19.832a.034.034,0,0,1,.006.041.034.034,0,0,1-.03.018h-.007l-22.821-4.4-17.486,9A.044.044,0,0,1,215.989,191.038Zm20.1-24.417L216.122,190.9l17.348-8.925a.035.035,0,0,1,.023,0l22.721,4.379Z" transform="translate(-215.955 -166.534)" fill="#010101"/>
      </g>
    </g>
    <g id="Groupe_59055" data-name="Groupe 59055" transform="translate(2428.576 1936.327)">
      <g id="Groupe_59052" data-name="Groupe 59052" transform="translate(0 17.053)">
        <path id="Tracé_57820" data-name="Tracé 57820" d="M187.193,248.709h-.008a.034.034,0,0,1-.024-.02l-12.018-28.524a.033.033,0,0,1,0-.034.047.047,0,0,1,.032-.014l29.1,4.373,11.064-.659a.032.032,0,0,1,.034.021.034.034,0,0,1-.009.039L187.216,248.7A.033.033,0,0,1,187.193,248.709ZM175.23,220.193l11.976,28.425L215.246,223.9l-10.971.653Z" transform="translate(-175.14 -220.116)" fill="#010101"/>
      </g>
      <g id="Groupe_59053" data-name="Groupe 59053" transform="translate(37.688 11.974)">
        <path id="Tracé_57821" data-name="Tracé 57821" d="M229.92,235.977h0a.034.034,0,0,1-.03-.037l1.959-23.171a.035.035,0,0,1,.034-.032h0a.034.034,0,0,1,.034.032l.523,8.794-2.483,14.386A.033.033,0,0,1,229.92,235.977Zm1.953-22.727-1.851,21.9,2.347-13.6Z" transform="translate(-229.886 -212.737)" fill="#010101"/>
      </g>
      <g id="Groupe_59054" data-name="Groupe 59054" transform="translate(18.63 0)">
        <path id="Tracé_57822" data-name="Tracé 57822" d="M212.705,216.838a.033.033,0,0,1-.031-.019l-10.468-21.426a.034.034,0,0,1,.012-.043.033.033,0,0,1,.045.007l9.942,12.592a.031.031,0,0,1,.008.02l.526,8.833a.035.035,0,0,1-.025.035Zm-10.3-21.187,10.252,20.984-.515-8.651Z" transform="translate(-202.203 -195.344)" fill="#010101"/>
      </g>
    </g>
    <g id="Groupe_59059" data-name="Groupe 59059" transform="translate(2437.216 1923.26)">
      <g id="Groupe_59058" data-name="Groupe 59058" transform="translate(0 0)">
        <g id="Groupe_59057" data-name="Groupe 59057">
          <path id="Tracé_57823" data-name="Tracé 57823" d="M213.217,191.023l-15.5,8.2-10.025,6.342,5.5,22.308,4.527-13.662,15.5,9Z" transform="translate(-187.69 -180.93)" fill="#d1d1d1"/>
          <path id="Tracé_57824" data-name="Tracé 57824" d="M197.715,176.362,187.69,201l10.025-6.342,15.5-8.2Z" transform="translate(-187.69 -176.362)" fill="#e0e0e0"/>
          <g id="Groupe_59056" data-name="Groupe 59056" transform="translate(10.025)">
            <path id="Tracé_57825" data-name="Tracé 57825" d="M224.772,187.9l14.092,8.2V181l12.526,16.89-12.526,13.2-14.092,9V187.9Z" transform="translate(-209.269 -177.806)" fill="#e0e0e0"/>
            <path id="Tracé_57826" data-name="Tracé 57826" d="M202.253,176.362l29.594,3.191v15.1l-14.092-8.2Z" transform="translate(-202.253 -176.362)" fill="#fcfcfc"/>
          </g>
          <path id="Tracé_57827" data-name="Tracé 57827" d="M251.39,205.531,237.959,234.57l-13.187-6.844,14.092-9Z" transform="translate(-199.244 -185.451)" fill="#d1d1d1"/>
          <path id="Tracé_57828" data-name="Tracé 57828" d="M215.706,233.7l-15.5-9-4.527,13.662,33.217,2.178Z" transform="translate(-190.178 -191.425)" fill="#afafaf"/>
        </g>
      </g>
    </g>
    <g id="Groupe_59060" data-name="Groupe 59060" transform="translate(2428.576 1918.488)">
      <path id="Tracé_57829" data-name="Tracé 57829" d="M175.175,204.392a.037.037,0,0,1-.017,0,.034.034,0,0,1-.017-.039l8.147-34.892a.035.035,0,0,1,.018-.023.04.04,0,0,1,.03,0L206.092,179.6a.037.037,0,0,1,.02.03.035.035,0,0,1-.017.032l-16.7,10.265L175.2,204.382A.034.034,0,0,1,175.175,204.392Zm8.171-34.879-8.11,34.733,14.112-14.378L206,179.632Z" transform="translate(-175.141 -169.431)" fill="#010101"/>
    </g>
    <g id="Groupe_59061" data-name="Groupe 59061" transform="translate(2436.723 1916.495)">
      <path id="Tracé_57830" data-name="Tracé 57830" d="M232.932,189.024h0a.035.035,0,0,1-.014,0l-23.165-10.265-22.756-10.162a.034.034,0,0,1-.02-.037.034.034,0,0,1,.032-.028l40.051-1.993h0a.035.035,0,0,1,.034.025l5.867,22.41a.036.036,0,0,1,.006.019A.034.034,0,0,1,232.932,189.024Zm-45.778-20.434,22.625,10.1,23.1,10.236-5.845-22.323Z" transform="translate(-186.974 -166.536)" fill="#010101"/>
    </g>
    <g id="Groupe_59062" data-name="Groupe 59062" transform="translate(2466.264 1936.328)">
      <path id="Tracé_57831" data-name="Tracé 57831" d="M248.909,236.887h-.01l-18.989-6.329a.036.036,0,0,1-.023-.028.036.036,0,0,1,.013-.033l16.376-12.362,14.356-22.773a.035.035,0,0,1,.043-.013.034.034,0,0,1,.019.041l-11.751,41.474a.035.035,0,0,1-.017.021A.036.036,0,0,1,248.909,236.887Zm-18.916-6.375,18.892,6.3L260.561,195.6l-14.232,22.577a.02.02,0,0,1-.008.009Z" transform="translate(-229.885 -195.345)" fill="#010101"/>
    </g>
    <g id="Groupe_59063" data-name="Groupe 59063" transform="translate(2440.595 1959.107)">
      <path id="Tracé_57832" data-name="Tracé 57832" d="M192.633,251.3a.033.033,0,0,1-.034-.037l2.18-22.8a.033.033,0,0,1,.018-.026.036.036,0,0,1,.032,0L218.318,240.8,237.3,247.13a.035.035,0,0,1-.008.067l-44.658,4.1Zm2.21-22.778-2.171,22.705,44.453-4.085-18.833-6.276Z" transform="translate(-192.599 -228.434)" fill="#010101"/>
    </g>
    <g id="Groupe_59064" data-name="Groupe 59064" transform="translate(2442.775 1938.915)">
      <path id="Tracé_57833" data-name="Tracé 57833" d="M235.669,219.363H195.8a.034.034,0,0,1-.034-.034V199.137a.035.035,0,0,1,.034-.034h39.869a.035.035,0,0,1,.034.034v20.191A.034.034,0,0,1,235.669,219.363Zm-39.834-.068h39.8V199.172h-39.8Z" transform="translate(-195.766 -199.103)" fill="#010101"/>
    </g>
    <g id="Groupe_59068" data-name="Groupe 59068" transform="translate(2459.479 1916.495)">
      <g id="Groupe_59065" data-name="Groupe 59065" transform="translate(4.133 42.611)">
        <path id="Tracé_57834" data-name="Tracé 57834" d="M228.719,240.868l-.012,0a.034.034,0,0,1-.021-.025l-2.652-12.366a.034.034,0,0,1,.007-.029.034.034,0,0,1,.027-.012H245.1a.034.034,0,0,1,.021.061l-16.381,12.366A.034.034,0,0,1,228.719,240.868ZM226.11,228.5l2.632,12.272L245,228.5Z" transform="translate(-226.034 -228.434)" fill="#010101"/>
      </g>
      <g id="Groupe_59066" data-name="Groupe 59066" transform="translate(0 12.154)">
        <path id="Tracé_57835" data-name="Tracé 57835" d="M243.23,194.526H224.293a.034.034,0,0,1-.032-.021l-4.229-10.265a.035.035,0,0,1,.008-.038.034.034,0,0,1,.038-.007l23.166,10.265a.036.036,0,0,1,.019.039A.035.035,0,0,1,243.23,194.526Zm-18.914-.069h18.751l-22.938-10.164Z" transform="translate(-220.03 -184.192)" fill="#010101"/>
      </g>
      <g id="Groupe_59067" data-name="Groupe 59067" transform="translate(17.295 0)">
        <path id="Tracé_57836" data-name="Tracé 57836" d="M251.057,209.216h-.009a.033.033,0,0,1-.025-.033V188.995l-5.87-22.415a.035.035,0,0,1,.016-.039.035.035,0,0,1,.041,0l20.229,19.832a.035.035,0,0,1,0,.043L251.086,209.2A.034.034,0,0,1,251.057,209.216Zm-5.805-42.534,5.839,22.3v20.08l14.28-22.654Z" transform="translate(-245.153 -166.536)" fill="#010101"/>
      </g>
    </g>
    <g id="Groupe_59072" data-name="Groupe 59072" transform="translate(2428.576 1928.651)">
      <g id="Groupe_59069" data-name="Groupe 59069" transform="translate(0 10.264)">
        <path id="Tracé_57837" data-name="Tracé 57837" d="M187.193,242.161a.034.034,0,0,1-.032-.021l-12.018-28.524a.036.036,0,0,1,.008-.037l14.2-14.466a.034.034,0,0,1,.038-.008.035.035,0,0,1,.021.032v20.191l-2.181,22.8a.034.034,0,0,1-.029.031Zm-11.978-28.55,11.957,28.376,2.167-22.663v-20.1Z" transform="translate(-175.141 -199.103)" fill="#010101"/>
      </g>
      <g id="Groupe_59070" data-name="Groupe 59070" transform="translate(14.199 30.456)">
        <path id="Tracé_57838" data-name="Tracé 57838" d="M219.289,240.868a.036.036,0,0,1-.016,0L195.784,228.5a.033.033,0,0,1-.017-.038.033.033,0,0,1,.033-.026h20.837a.035.035,0,0,1,.034.027l2.651,12.365a.035.035,0,0,1-.012.035A.034.034,0,0,1,219.289,240.868ZM195.94,228.5l23.3,12.268L216.61,228.5Z" transform="translate(-195.766 -228.434)" fill="#010101"/>
      </g>
      <g id="Groupe_59071" data-name="Groupe 59071" transform="translate(14.199 0)">
        <path id="Tracé_57839" data-name="Tracé 57839" d="M216.733,194.526H195.8a.033.033,0,0,1-.033-.025.035.035,0,0,1,.015-.039l16.7-10.265a.042.042,0,0,1,.029,0,.036.036,0,0,1,.021.021l4.229,10.264a.038.038,0,0,1,0,.032A.036.036,0,0,1,216.733,194.526Zm-20.811-.069h20.759l-4.194-10.18Z" transform="translate(-195.766 -184.193)" fill="#010101"/>
      </g>
    </g>
    <path id="Tracé_57840" data-name="Tracé 57840" d="M193.083,261.242a.794.794,0,1,1-.8-.8A.8.8,0,0,1,193.083,261.242Z" transform="translate(2248.34 1720.698)" fill="#010101"/>
    <path id="Tracé_57841" data-name="Tracé 57841" d="M257.955,255.281a.794.794,0,1,1-.8-.8A.8.8,0,0,1,257.955,255.281Z" transform="translate(2228.127 1722.556)" fill="#010101"/>
    <path id="Tracé_57842" data-name="Tracé 57842" d="M230.371,246.088a.795.795,0,1,1-.8-.8A.8.8,0,0,1,230.371,246.088Z" transform="translate(2236.722 1725.42)" fill="#010101"/>
    <path id="Tracé_57843" data-name="Tracé 57843" d="M196.111,228.022a.794.794,0,1,1-.8-.8A.8.8,0,0,1,196.111,228.022Z" transform="translate(2247.397 1731.049)" fill="#010101"/>
    <path id="Tracé_57844" data-name="Tracé 57844" d="M226.519,198.735a.794.794,0,1,1-.794-.8A.8.8,0,0,1,226.519,198.735Z" transform="translate(2237.922 1740.175)" fill="#010101"/>
    <path id="Tracé_57845" data-name="Tracé 57845" d="M196.251,198.735a.794.794,0,1,1-.8-.8A.8.8,0,0,1,196.251,198.735Z" transform="translate(2247.353 1740.175)" fill="#010101"/>
    <path id="Tracé_57846" data-name="Tracé 57846" d="M254.164,198.735a.794.794,0,1,1-.8-.8A.8.8,0,0,1,254.164,198.735Z" transform="translate(2229.308 1740.175)" fill="#010101"/>
    <path id="Tracé_57847" data-name="Tracé 57847" d="M275.023,194.978a.794.794,0,1,1-.8-.8A.795.795,0,0,1,275.023,194.978Z" transform="translate(2222.809 1741.345)" fill="#010101"/>
    <path id="Tracé_57848" data-name="Tracé 57848" d="M245.638,166.226a.794.794,0,1,1-.8-.8A.795.795,0,0,1,245.638,166.226Z" transform="translate(2231.965 1750.304)" fill="#010101"/>
    <path id="Tracé_57849" data-name="Tracé 57849" d="M187.459,169.122a.794.794,0,1,1-.8-.8A.8.8,0,0,1,187.459,169.122Z" transform="translate(2250.093 1749.402)" fill="#010101"/>
    <path id="Tracé_57850" data-name="Tracé 57850" d="M175.625,219.808a.794.794,0,1,1-.8-.8A.795.795,0,0,1,175.625,219.808Z" transform="translate(2253.78 1733.609)" fill="#010101"/>
    <path id="Tracé_57851" data-name="Tracé 57851" d="M254.164,228.125a.794.794,0,1,1-.8-.8A.8.8,0,0,1,254.164,228.125Z" transform="translate(2229.308 1731.017)" fill="#010101"/>
  </g>
</svg>
