<svg xmlns="http://www.w3.org/2000/svg" width="556.682" height="621.539" viewBox="0 0 556.682 621.539">
  <g id="Groupe_60140" data-name="Groupe 60140" transform="translate(-131.051 -53.189)">
    <g id="Groupe_60979" data-name="Groupe 60979" transform="translate(134.79 56.932)">
      <g id="Groupe_60108" data-name="Groupe 60108" transform="translate(135.744 0)">
        <path id="Tracé_66328" data-name="Tracé 66328" d="M198.892,191.825a.77.77,0,0,1-.759-.648L176.479,55.3a.767.767,0,0,1,1.026-.841L446.571,154.2a.768.768,0,0,1-.157,1.48l-247.409,36.14A.74.74,0,0,1,198.892,191.825ZM178.2,56.355l21.328,133.833,243.687-35.6Z" transform="translate(-176.47 -54.408)" fill="#131313"/>
      </g>
      <g id="Groupe_60109" data-name="Groupe 60109" transform="translate(15.337 268.027)">
        <path id="Tracé_66329" data-name="Tracé 66329" d="M138.032,415.449a.767.767,0,0,1-.562-1.293L312.025,227.449a.76.76,0,0,1,.384-.221L670.175,141.7a.769.769,0,0,1,.771,1.238L514.111,332.8a.769.769,0,0,1-.427.261L138.195,415.43A.761.761,0,0,1,138.032,415.449ZM312.989,228.665,140.277,413.4,513.1,331.619,668.3,143.733Z" transform="translate(-137.262 -141.684)" fill="#131313"/>
      </g>
      <g id="Groupe_60110" data-name="Groupe 60110" transform="translate(0 135.88)">
        <path id="Tracé_66330" data-name="Tracé 66330" d="M148.375,504.566a.843.843,0,0,1-.261-.043.778.778,0,0,1-.507-.679L132.27,245.165a.761.761,0,0,1,.243-.608l157.4-145.7a.76.76,0,0,1,.774-.16.768.768,0,0,1,.507.611l32.492,217.669a.775.775,0,0,1-.2.639L148.934,504.323A.756.756,0,0,1,148.375,504.566ZM133.821,245.438l15.214,256.53L322.116,316.837,289.891,100.973Z" transform="translate(-132.268 -98.654)" fill="#131313"/>
      </g>
      <g id="Groupe_60111" data-name="Groupe 60111" transform="translate(15.338 353.545)">
        <path id="Tracé_66331" data-name="Tracé 66331" d="M511.181,430.033a1.2,1.2,0,0,1-.147-.012L137.884,357.762a.757.757,0,0,1-.584-.516.77.77,0,0,1,.169-.762L312.024,169.778a.7.7,0,0,1,.6-.243.77.77,0,0,1,.571.3L511.789,428.8a.767.767,0,0,1-.608,1.234ZM139.539,356.522l369.8,71.6L312.528,171.489Z" transform="translate(-137.263 -169.53)" fill="#131313"/>
      </g>
    </g>
    <g id="Groupe_60119" data-name="Groupe 60119" transform="translate(239.96 189.11)">
      <g id="Groupe_60112" data-name="Groupe 60112" transform="translate(0 125.712)">
        <path id="Tracé_66332" data-name="Tracé 66332" d="M329.712,133.978,151.98,189.2l29.1,155.492,221.112-78.636Z" transform="translate(-151.98 -133.978)" fill="#0a35d2"/>
      </g>
      <g id="Groupe_60113" data-name="Groupe 60113">
        <path id="Tracé_66333" data-name="Tracé 66333" d="M212.635,81.992,151.98,262.925,329.712,207.7Z" transform="translate(-151.98 -81.992)" fill="#1a46e5"/>
      </g>
      <g id="Groupe_60116" data-name="Groupe 60116" transform="translate(60.656)">
        <g id="Groupe_60114" data-name="Groupe 60114" transform="translate(117.076 39.805)">
          <path id="Tracé_66334" data-name="Tracé 66334" d="M225.479,184.36,279,98.453l99.4,90.987-80.449,127Z" transform="translate(-225.479 -98.453)" fill="#0a2aa1"/>
        </g>
        <g id="Groupe_60115" data-name="Groupe 60115">
          <path id="Tracé_66335" data-name="Tracé 66335" d="M177.063,81.992,347.66,121.8,294.139,207.7Z" transform="translate(-177.063 -81.992)" fill="#1f3daf"/>
        </g>
      </g>
      <g id="Groupe_60117" data-name="Groupe 60117" transform="translate(250.209 130.792)">
        <path id="Tracé_66336" data-name="Tracé 66336" d="M335.9,136.079,265.876,356.906l-10.426-93.83Z" transform="translate(-255.45 -136.079)" fill="#001b80"/>
      </g>
      <g id="Groupe_60118" data-name="Groupe 60118" transform="translate(29.097 257.789)">
        <path id="Tracé_66337" data-name="Tracé 66337" d="M385.124,188.6,164.012,267.233,395.55,282.427Z" transform="translate(-164.012 -188.597)" fill="#0128b7"/>
      </g>
    </g>
    <g id="Groupe_60980" data-name="Groupe 60980" transform="translate(131.051 53.189)">
      <g id="Groupe_60132" data-name="Groupe 60132" transform="translate(3.737 3.744)">
        <g id="Groupe_60121" data-name="Groupe 60121" transform="translate(0.001 228.357)">
          <g id="Groupe_60120" data-name="Groupe 60120">
            <path id="Tracé_66338" data-name="Tracé 66338" d="M148.375,442.2a.772.772,0,0,1-.768-.722L132.27,182.8a.764.764,0,0,1,.633-.8l300.181-53.224a.773.773,0,0,1,.848.473l90.645,229.532a.769.769,0,0,1-.55,1.032l-375.49,82.368A.74.74,0,0,1,148.375,442.2ZM133.842,183.392l15.245,257.1,373.727-81.984L432.734,130.4Z" transform="translate(-132.269 -128.767)" fill="#131313"/>
          </g>
        </g>
        <g id="Groupe_60123" data-name="Groupe 60123" transform="translate(0 0.001)">
          <g id="Groupe_60122" data-name="Groupe 60122">
            <path id="Tracé_66339" data-name="Tracé 66339" d="M133.036,337.522a.768.768,0,0,1-.691-1.1L268.091,54.842a.764.764,0,0,1,.623-.433.794.794,0,0,1,.691.316L433.844,283.082a.771.771,0,0,1,.086.737.762.762,0,0,1-.574.467L133.168,337.51A.92.92,0,0,1,133.036,337.522ZM268.914,56.67,134.381,335.735l297.5-52.748Z" transform="translate(-132.268 -54.409)" fill="#131313"/>
          </g>
        </g>
        <g id="Groupe_60125" data-name="Groupe 60125" transform="translate(300.184 99.74)">
          <g id="Groupe_60124" data-name="Groupe 60124">
            <path id="Tracé_66340" data-name="Tracé 66340" d="M321.425,446.569a.819.819,0,0,1-.12-.009.763.763,0,0,1-.593-.476L230.068,216.551a.778.778,0,0,1,.117-.768L334.815,87.169a.974.974,0,0,1,.6-.283.762.762,0,0,1,.583.27L478.846,255.443a.77.77,0,0,1,.006.986L322.018,446.289A.77.77,0,0,1,321.425,446.569ZM231.662,216.4l90,227.9,155.6-188.365L335.423,88.855Z" transform="translate(-230.015 -86.886)" fill="#131313"/>
          </g>
        </g>
        <g id="Groupe_60127" data-name="Groupe 60127" transform="translate(135.747)">
          <g id="Groupe_60126" data-name="Groupe 60126">
            <path id="Tracé_66341" data-name="Tracé 66341" d="M341.676,284.3h-.025a.767.767,0,0,1-.6-.319L176.617,55.623a.766.766,0,0,1,.888-1.167L446.57,154.194a.77.77,0,0,1,.473.519.755.755,0,0,1-.144.685L342.271,284.016A.774.774,0,0,1,341.676,284.3ZM179.331,56.772l162.378,225.5L445.032,155.263Z" transform="translate(-176.47 -54.408)" fill="#131313"/>
          </g>
        </g>
        <g id="Groupe_60129" data-name="Groupe 60129" transform="translate(388.489 268.026)">
          <g id="Groupe_60128" data-name="Groupe 60128">
            <path id="Tracé_66342" data-name="Tracé 66342" d="M259.537,487.7a1.045,1.045,0,0,1-.172-.015.77.77,0,0,1-.6-.762L261.106,332.3a.772.772,0,0,1,.178-.476L418.119,141.961a.768.768,0,0,1,1.287.814L260.231,487.259A.764.764,0,0,1,259.537,487.7Zm3.1-155.112-2.282,150.736L415.524,147.51Z" transform="translate(-258.769 -141.684)" fill="#131313"/>
          </g>
        </g>
        <g id="Groupe_60131" data-name="Groupe 60131" transform="translate(15.34 457.886)">
          <g id="Groupe_60130" data-name="Groupe 60130">
            <path id="Tracé_66343" data-name="Tracé 66343" d="M511.18,359.667a1.182,1.182,0,0,1-.147-.012L137.883,287.4a.767.767,0,0,1-.018-1.5l375.49-82.368a.742.742,0,0,1,.648.157.751.751,0,0,1,.283.6l-2.337,154.624a.766.766,0,0,1-.768.755ZM141.827,286.6l368.6,71.377,2.309-152.741Z" transform="translate(-137.263 -203.507)" fill="#131313"/>
          </g>
        </g>
      </g>
      <g id="Groupe_60133" data-name="Groupe 60133" transform="translate(135.737)">
        <path id="Tracé_66344" data-name="Tracé 66344" d="M184.245,58.265a4.515,4.515,0,1,1-3.916-5.04A4.519,4.519,0,0,1,184.245,58.265Z" transform="translate(-175.25 -53.189)" fill="#131313"/>
      </g>
      <g id="Groupe_60134" data-name="Groupe 60134" transform="translate(404.862 99.247)">
        <path id="Tracé_66345" data-name="Tracé 66345" d="M271.877,90.585a4.515,4.515,0,1,1-3.916-5.043A4.515,4.515,0,0,1,271.877,90.585Z" transform="translate(-262.883 -85.506)" fill="#131313"/>
      </g>
      <g id="Groupe_60135" data-name="Groupe 60135" transform="translate(547.653 268.024)">
        <path id="Tracé_66346" data-name="Tracé 66346" d="M318.373,145.547a4.515,4.515,0,1,1-3.913-5.046A4.521,4.521,0,0,1,318.373,145.547Z" transform="translate(-309.379 -140.464)" fill="#131313"/>
      </g>
      <g id="Groupe_60136" data-name="Groupe 60136" transform="translate(388.478 612.51)">
        <path id="Tracé_66347" data-name="Tracé 66347" d="M266.542,257.712a4.514,4.514,0,1,1-3.909-5.04A4.51,4.51,0,0,1,266.542,257.712Z" transform="translate(-257.548 -252.636)" fill="#131313"/>
      </g>
      <g id="Groupe_60137" data-name="Groupe 60137" transform="translate(15.329 540.256)">
        <path id="Tracé_66348" data-name="Tracé 66348" d="M145.036,234.189a4.515,4.515,0,1,1-3.912-5.043A4.516,4.516,0,0,1,145.036,234.189Z" transform="translate(-136.042 -229.109)" fill="#131313"/>
      </g>
      <g id="Groupe_60138" data-name="Groupe 60138" transform="translate(390.819 457.883)">
        <path id="Tracé_66349" data-name="Tracé 66349" d="M267.3,207.368a4.513,4.513,0,1,1-3.909-5.046A4.5,4.5,0,0,1,267.3,207.368Z" transform="translate(-258.311 -202.286)" fill="#131313"/>
      </g>
      <g id="Groupe_60139" data-name="Groupe 60139" transform="translate(0 281.495)">
        <path id="Tracé_66350" data-name="Tracé 66350" d="M140.043,149.929a4.513,4.513,0,1,1-3.913-5.043A4.517,4.517,0,0,1,140.043,149.929Z" transform="translate(-131.051 -144.85)" fill="#131313"/>
      </g>
    </g>
  </g>
</svg>
